# xmcd
#
# Track frame offsets: 
#        150
#        10788
#        23790
#        35190
#        48360
#        57695
#        67123
#        77763
#        89128
#        100475
#
# Disc length: 1492 seconds
#
# Revision: 3
# Processed by: cddbd v1.5.2PL0 Copyright (c) Steve Scherf et al.
# Submitted via: ExactAudioCopyFreeDBPlugin 1.0
#
DISCID=8d05d20a
DTITLE=Flatt and Scruggs - On Foggy Mountain
DYEAR=1979
DGENRE=Bluegrass
TTITLE0=Foggy Mountain Breakdown
TTITLE1=The Story Of Bonnie And Clyde
TTITLE2=Petticoat Junction
TTITLE3=You Are My Flower
TTITLE4=The Ballad Of Jed Clampett
TTITLE5=John Henry
TTITLE6=Foggy Mountain Top
TTITLE7=Coal Miner's Blues
TTITLE8=Wabash Cannon Ball
TTITLE9=Jimmy Brown The Newsboy
EXTD=
EXTT0=
EXTT1=
EXTT2=
EXTT3=
EXTT4=
EXTT5=
EXTT6=
EXTT7=
EXTT8=
EXTT9=
PLAYORDER=
